<svg width="23" height="24" viewBox="0 0 23 24" fill="none" xmlns="http://www.w3.org/2000/svg">
<path fill-rule="evenodd" clip-rule="evenodd" d="M4.79167 3.39307H18.2083C19.2669 3.39307 20.125 4.25119 20.125 5.30973V18.7264C20.125 19.785 19.2669 20.6431 18.2083 20.6431H4.79167C3.73312 20.6431 2.875 19.785 2.875 18.7264V5.30973C2.875 4.25119 3.73312 3.39307 4.79167 3.39307ZM7.66667 17.7681C7.9313 17.7681 8.14583 17.5535 8.14583 17.2889V10.5806C8.14583 10.316 7.9313 10.1014 7.66667 10.1014H6.22917C5.96453 10.1014 5.75 10.316 5.75 10.5806V17.2889C5.75 17.5535 5.96453 17.7681 6.22917 17.7681H7.66667ZM6.94792 9.14307C6.154 9.14307 5.51042 8.49948 5.51042 7.70557C5.51042 6.91165 6.154 6.26807 6.94792 6.26807C7.74183 6.26807 8.38542 6.91165 8.38542 7.70557C8.38542 8.49948 7.74183 9.14307 6.94792 9.14307ZM16.7708 17.7681C17.0354 17.7681 17.25 17.5535 17.25 17.2889V12.8806C17.2811 11.3576 16.1552 10.0578 14.6433 9.8714C13.5863 9.77485 12.5621 10.2685 11.9792 11.1556V10.5806C11.9792 10.316 11.7646 10.1014 11.5 10.1014H10.0625C9.7979 10.1014 9.58333 10.316 9.58333 10.5806V17.2889C9.58333 17.5535 9.7979 17.7681 10.0625 17.7681H11.5C11.7646 17.7681 11.9792 17.5535 11.9792 17.2889V13.6951C11.9792 12.9013 12.6228 12.2576 13.4167 12.2576C14.2105 12.2576 14.8542 12.9013 14.8542 13.6951V17.2889C14.8542 17.5535 15.0687 17.7681 15.3333 17.7681H16.7708Z" fill="black"/>
</svg>
