<svg width="23" height="24" viewBox="0 0 23 24" fill="none" xmlns="http://www.w3.org/2000/svg">
<path d="M1.11841 8.82666V17.0492C1.11841 17.8117 1.42131 18.5429 1.96048 19.0821C2.49964 19.6213 3.23091 19.9242 3.99341 19.9242H18.3684C19.1309 19.9242 19.8622 19.6213 20.4013 19.0821C20.9405 18.5429 21.2434 17.8117 21.2434 17.0492V8.82666L12.6874 14.0908C12.2343 14.3695 11.7128 14.5171 11.1809 14.5171C10.649 14.5171 10.1275 14.3695 9.67441 14.0908L1.11841 8.82666Z" fill="black"/>
<path d="M21.2434 7.13823V6.98682C21.2434 6.22432 20.9405 5.49305 20.4013 4.95388C19.8622 4.41472 19.1309 4.11182 18.3684 4.11182H3.99341C3.23091 4.11182 2.49964 4.41472 1.96048 4.95388C1.42131 5.49305 1.11841 6.22432 1.11841 6.98682V7.13823L10.4277 12.8671C10.6542 13.0065 10.9149 13.0803 11.1809 13.0803C11.4469 13.0803 11.7076 13.0065 11.9342 12.8671L21.2434 7.13823Z" fill="black"/>
</svg>
